<?xml version="1.0" standalone="no"?>
<!DOCTYPE svg PUBLIC "-//W3C//DTD SVG 20010904//EN"
 "http://www.w3.org/TR/2001/REC-SVG-20010904/DTD/svg10.dtd">
<svg version="1.0" xmlns="http://www.w3.org/2000/svg"
 width="1024.000000pt" height="1024.000000pt" viewBox="0 0 1024.000000 1024.000000"
 preserveAspectRatio="xMidYMid meet">
<metadata>
Created by potrace 1.14, written by Peter Selinger 2001-2017
</metadata>
<g transform="translate(0.000000,1024.000000) scale(0.100000,-0.100000)"
fill="#000000" stroke="none">
<path d="M0 5120 l0 -5120 5120 0 5120 0 0 5120 0 5120 -5120 0 -5120 0 0
-5120z m6770 3831 c0 -102 -3 -140 -12 -144 -7 -2 -87 -2 -178 1 l-165 5 -2
138 -1 139 179 0 179 0 0 -139z m-2830 -361 l0 -60 -72 0 -73 0 -1 60 0 60 73
0 73 0 0 -60z m3330 0 l0 -60 -40 -1 c-22 -1 -53 -2 -70 -3 l-30 -1 0 63 0 62
70 0 70 0 0 -60z m-1750 5 c320 -40 625 -145 895 -309 l60 -36 -452 0 -451 0
-6 -47 c-3 -27 -4 -59 -2 -72 l3 -24 541 0 541 1 55 -47 55 -46 0 -147 1 -147
147 -3 147 -3 58 -75 58 -75 -205 -3 -205 -2 0 -170 0 -170 307 -2 306 -3 17
-30 c104 -190 250 -668 250 -819 l0 -39 -92 7 c-50 3 -144 6 -208 6 l-118 0
-7 38 c-16 88 -85 186 -165 237 -76 48 -131 58 -284 52 -157 -5 -288 -34 -466
-102 -306 -117 -588 -314 -684 -478 -73 -125 -25 -267 153 -450 131 -135 285
-233 431 -273 98 -27 280 -25 385 5 216 61 443 227 552 403 l36 58 240 0 240
0 -7 -77 c-13 -142 -80 -464 -106 -514 -9 -16 -22 -19 -81 -19 l-70 0 3 -280
3 -280 -317 0 -318 0 0 -425 0 -425 -175 0 -174 0 1 143 1 142 -131 3 -132 3
0 -621 0 -620 -290 0 -289 0 -3 853 -3 852 -29 85 c-70 212 -174 323 -301 323
-129 0 -237 -122 -306 -343 l-24 -75 -5 -1360 -5 -1360 -92 -3 -93 -3 0 791 0
790 -208 0 -209 0 4 345 4 345 -290 0 -291 0 0 280 0 280 -575 0 -575 0 0 85
0 85 270 0 c149 0 270 2 270 4 0 2 -9 25 -20 51 -17 39 -20 69 -20 190 l0 144
-67 3 -68 3 -16 65 -16 65 343 3 344 2 0 69 0 69 -217 7 c-120 4 -284 5 -365
2 -84 -2 -148 -1 -148 4 0 5 -6 53 -14 107 -8 53 -17 123 -21 155 l-6 57 238
0 238 0 26 -48 c41 -73 141 -184 215 -240 87 -65 249 -146 349 -174 63 -18
106 -23 200 -23 134 0 213 19 335 80 201 101 419 329 464 487 19 63 10 128
-24 183 -37 60 -211 218 -306 278 -217 136 -470 239 -697 282 -105 20 -278 20
-347 -1 -118 -35 -214 -133 -245 -249 -8 -32 -16 -59 -18 -61 -1 -2 -95 -5
-209 -7 l-206 -5 5 42 c29 250 149 653 243 809 l22 37 304 0 304 0 0 90 0 90
325 0 325 0 0 180 c0 180 0 180 -22 181 -13 1 -220 0 -460 -1 -241 -1 -438 1
-438 4 0 11 113 141 174 200 339 329 841 567 1331 631 142 18 426 18 575 0z
m2548 -527 l-3 -103 -157 -5 -157 -5 -3 108 -3 107 163 0 163 0 -3 -102z
m-178 -558 l0 -200 -250 0 -250 0 0 200 0 200 250 0 250 0 0 -200z m-4730
-104 c0 -2 -18 -42 -40 -90 l-40 -86 -197 0 -198 0 -3 85 -2 84 102 4 c176 5
378 7 378 3z m5190 -1238 l0 -178 -230 0 -230 0 0 178 0 177 230 0 230 0 0
-177z m-5760 -239 l0 -101 -31 6 c-17 3 -71 6 -120 6 l-89 0 0 95 0 95 120 0
120 0 0 -101z m5712 -584 c2 -42 2 -80 0 -85 -2 -6 -49 -10 -108 -10 l-104 0
0 85 0 85 104 0 104 0 4 -75z m-644 -704 l212 -1 0 -212 0 -213 -240 -1 -240
-1 0 217 0 216 28 -2 c15 -1 123 -2 240 -3z m-339 -1291 l2 -220 -281 0 -280
0 0 220 0 220 279 0 279 0 1 -220z m-3449 -15 l0 -65 -65 0 -65 0 0 65 0 65
65 0 65 0 0 -65z m720 -380 l0 -95 -145 0 -145 0 0 95 0 95 145 0 145 0 0 -95z
m-480 -300 l0 -195 -195 0 -195 0 0 190 0 190 193 3 c105 1 193 3 195 5 1 1 2
-86 2 -193z m2040 -616 l0 -209 -175 0 -175 0 0 210 0 211 175 -1 175 -2 0
-209z m-830 -559 l0 -60 -65 0 -65 0 0 60 0 60 65 0 65 0 0 -60z"/>
</g>
</svg>
